<svg xmlns="http://www.w3.org/2000/svg"  viewBox="0 0 100 100" width="200px" height="200px"><path fill="#3070b7" d="M70,82H31c-6.6,0-12-5.4-12-12V31c0-6.6,5.4-12,12-12h39c6.6,0,12,5.4,12,12v39 C82,76.6,76.6,82,70,82z"/><path fill="#1f212b" d="M70,83H31c-7.168,0-13-5.832-13-13V31c0-7.168,5.832-13,13-13h39c7.168,0,13,5.832,13,13v39 C83,77.168,77.168,83,70,83z M31,20c-6.065,0-11,4.935-11,11v39c0,6.065,4.935,11,11,11h39c6.065,0,11-4.935,11-11V31 c0-6.065-4.935-11-11-11H31z"/><path fill="#1f212b" d="M54.5,78h-23c-4.687,0-8.5-3.813-8.5-8.5v-4c0-0.276,0.224-0.5,0.5-0.5s0.5,0.224,0.5,0.5v4 c0,4.136,3.364,7.5,7.5,7.5h23c0.276,0,0.5,0.224,0.5,0.5S54.776,78,54.5,78z"/><path fill="#1f212b" d="M69.5,78h-4c-0.276,0-0.5-0.224-0.5-0.5s0.224-0.5,0.5-0.5h4c4.136,0,7.5-3.364,7.5-7.5v-38 c0-4.136-3.364-7.5-7.5-7.5h-32c-0.276,0-0.5-0.224-0.5-0.5s0.224-0.5,0.5-0.5h32c4.687,0,8.5,3.813,8.5,8.5v38 C78,74.187,74.187,78,69.5,78z"/><path fill="#1f212b" d="M23.5,55c-0.276,0-0.5-0.224-0.5-0.5v-23c0-4.687,3.813-8.5,8.5-8.5h3c0.276,0,0.5,0.224,0.5,0.5 S34.776,24,34.5,24h-3c-4.136,0-7.5,3.364-7.5,7.5v23C24,54.776,23.776,55,23.5,55z"/><path fill="#1f212b" d="M23.5,63c-0.276,0-0.5-0.224-0.5-0.5v-5c0-0.276,0.224-0.5,0.5-0.5s0.5,0.224,0.5,0.5v5 C24,62.776,23.776,63,23.5,63z"/><path fill="#c6dff1" d="M62.466,39.688c0.054,0.9-0.005,1.88-0.235,2.962c-1.317,6.162-6.076,9.368-11.958,9.368 c0,0-3.566,0-4.433,0c-0.535,0-0.788,0.314-0.904,0.555l-1.788,8.273l-0.313,1.469h-0.006l-1.298,5.957l0.013,0.001 c-0.014,0.066-0.04,0.128-0.04,0.199c0,0.568,0.459,1.028,1.028,1.028h7.537l0.013-0.01c0.485-0.007,0.871-0.354,0.971-0.81 l0.018-0.015l1.862-8.65c0,0,0.13-0.825,0.997-0.825s4.294,0,4.294,0c5.882,0,10.69-3.192,12.008-9.355 C71.713,42.887,66.757,39.714,62.466,39.688z"/><path fill="#1f212b" d="M50.066,70H42.53c-0.843,0-1.528-0.686-1.528-1.528c0-0.086,0.015-0.16,0.028-0.217 c0.001-0.03,0.004-0.06,0.011-0.089l1.298-5.957c0.005-0.024,0.012-0.048,0.021-0.071l2.087-9.669 c0.008-0.039,0.021-0.076,0.038-0.112c0.257-0.533,0.751-0.838,1.355-0.838h4.433c5.981,0,10.269-3.354,11.469-8.973 c0.208-0.976,0.282-1.901,0.226-2.827c-0.009-0.138,0.041-0.273,0.136-0.374c0.096-0.1,0.233-0.149,0.366-0.156 c2.721,0.016,5.273,1.18,6.828,3.113c1.101,1.369,2.24,3.804,1.423,7.638c-1.306,6.105-5.977,9.75-12.496,9.75h-4.295 c-0.384,0-0.479,0.287-0.503,0.41L51.56,68.77c-0.011,0.046-0.027,0.091-0.05,0.133c-0.184,0.607-0.71,1.036-1.332,1.083 C50.141,69.995,50.103,70,50.066,70z M41.531,68.408L42,68.501C42.002,68.763,42.239,69,42.53,69h7.456 c0.029-0.006,0.058-0.01,0.086-0.01c0.239-0.003,0.437-0.172,0.491-0.418c0.009-0.039,0.022-0.077,0.04-0.112l1.84-8.55 c0.063-0.403,0.461-1.22,1.485-1.22h4.295c6.013,0,10.318-3.349,11.518-8.959c0.583-2.73,0.159-5.082-1.224-6.802 c-1.27-1.579-3.31-2.574-5.533-2.721c0.009,0.835-0.079,1.673-0.265,2.547c-1.307,6.114-5.96,9.764-12.447,9.764H45.84 c-0.205,0-0.34,0.07-0.431,0.227l-2.087,9.674c-0.006,0.026-0.014,0.051-0.022,0.075l-1.259,5.778 c0.001,0.034-0.002,0.069-0.01,0.103l-0.014,0.003l-0.009-0.002L41.531,68.408z"/><path fill="#fefdef" d="M47.581,40.483l0.005,0.002c0.107-0.455,0.495-0.79,0.982-0.79h13.846 c0.017,0,0.035-0.007,0.052-0.006c-0.295-4.912-4.415-7.188-8.051-7.188H40.569c-0.487,0-0.876,0.344-0.982,0.799l-0.005-0.002 L33.53,61.086l0.013,0.001c-0.014,0.066-0.04,0.128-0.04,0.199c0,0.568,0.459,1.019,1.028,1.019h8.295L47.581,40.483z"/><path fill="#1f212b" d="M42.826,62.805h-8.295c-0.843,0-1.528-0.681-1.528-1.519c0-0.085,0.014-0.157,0.027-0.215 c0-0.031,0.004-0.062,0.011-0.092l6.053-27.789c0.007-0.033,0.018-0.065,0.031-0.096C39.316,32.445,39.898,32,40.569,32h13.846 c4.021,0,8.248,2.631,8.55,7.659c0.009,0.145-0.046,0.286-0.149,0.387c-0.086,0.084-0.199,0.134-0.317,0.142 c-0.029,0.004-0.063,0.007-0.085,0.007H48.567c-0.239,0-0.438,0.163-0.494,0.404c-0.006,0.023-0.013,0.046-0.021,0.068 l-4.737,21.745C43.265,62.641,43.062,62.805,42.826,62.805z M33.533,61.221l0.468,0.091c0.002,0.265,0.234,0.493,0.53,0.493h7.893 l4.668-21.428c0.007-0.034,0.018-0.066,0.031-0.097c0.192-0.644,0.773-1.085,1.444-1.085h13.352C61.394,34.943,57.725,33,54.415,33 H40.569c-0.275,0-0.447,0.207-0.494,0.412c-0.006,0.023-0.013,0.046-0.021,0.068l-6.012,27.602 c0.001,0.038-0.003,0.076-0.011,0.113L33.533,61.221z"/><path fill="#d3dff1" d="M48.567,39.694c-0.487,0-0.876,0.335-0.982,0.79l-0.005-0.002l-2.647,12.092 c0.116-0.241,0.369-0.555,0.904-0.555c0.867,0,4.353,0,4.353,0c5.882,0,10.722-3.207,12.038-9.368 c0.231-1.082,0.29-2.062,0.235-2.962c-0.016-0.002-0.035,0.005-0.051,0.005H48.567z"/><path fill="#1f212b" d="M44.934,53.075c-0.055,0-0.109-0.009-0.163-0.027c-0.24-0.083-0.38-0.332-0.325-0.58l2.646-12.092 c0.007-0.033,0.018-0.065,0.031-0.096c0.19-0.644,0.771-1.086,1.444-1.086h13.846c0.051-0.009,0.07-0.008,0.124,0 c0.234,0.034,0.412,0.228,0.427,0.464c0.063,1.021-0.019,2.035-0.245,3.097c-1.287,6.022-6.087,9.764-12.527,9.764h-4.353 c-0.224,0-0.364,0.084-0.455,0.272C45.299,52.969,45.121,53.075,44.934,53.075z M48.052,40.667l-2.377,10.86 c0.054-0.005,0.108-0.008,0.164-0.008h4.353c6.031,0,10.349-3.354,11.549-8.973c0.173-0.807,0.253-1.581,0.243-2.353H48.567 c-0.24,0-0.438,0.162-0.494,0.403C48.067,40.622,48.061,40.645,48.052,40.667z"/></svg>