<svg xmlns="http://www.w3.org/2000/svg"  viewBox="0 0 100 100" width="200px" height="200px"><polygon fill="#78ccd3" points="54,34 18,34 1,66 37,66 54,34"/><path fill="#8e9cb3" d="M94.723,57.5c-0.578,3.057-2.219,5-4.771,5c-4.057,0-5.452-4.303-5.452-8.247	c0-7.201,3.239-8.753,5.657-8.753c2.4,0,4.015,1.492,4.554,4h4.719c-0.677-5.423-4.565-8-9.314-8	c-6.968,0-10.616,5.598-10.616,12.753c0,6.973,3.812,12.247,10.452,12.247c5.285,0,8.471-3.201,9.455-9H94.723z"/><path fill="#8e9cb3" d="M67.101,41.5c-2.493,0-5.27,1.421-6.601,3.715V33.5h-5V66h5v-2.93c1.56,2.709,4.575,3.43,7.417,3.43	c6.577,0,9.583-6.009,9.583-12.383C77.5,47.19,74.104,41.5,67.101,41.5z M66.542,62.5c-3.833,0-6.042-3.528-6.042-8.227	c0-4.971,2.044-8.273,6.042-8.273c3.913,0,5.956,4.023,5.958,8.273C72.5,58.341,70.875,62.5,66.542,62.5z"/><path fill="#1f212b" d="M37,67H1c-0.351,0-0.676-0.184-0.857-0.484c-0.181-0.301-0.19-0.675-0.025-0.984l17-32	C17.29,33.204,17.63,33,18,33h36c0.351,0,0.676,0.184,0.857,0.484c0.181,0.301,0.19,0.675,0.025,0.984l-17,32	C37.71,66.796,37.37,67,37,67z M2.664,65h33.734l15.938-30H18.602L2.664,65z"/><path fill="#1f212b" d="M89.952,67C83.401,67,79,61.877,79,54.253C79,46.202,83.363,41,90.116,41	c5.482,0,9.15,3.154,9.811,8.438c0.018,0.142-0.026,0.285-0.121,0.393S99.574,50,99.431,50h-4.72c-0.235,0-0.439-0.165-0.489-0.396	C93.724,47.28,92.279,46,90.157,46C88.231,46,85,47.072,85,54.253C85,57.998,86.301,62,89.952,62c2.969,0,3.955-2.878,4.279-4.593	C94.276,57.171,94.482,57,94.723,57h4.685c0.147,0,0.287,0.064,0.382,0.178c0.095,0.112,0.136,0.261,0.111,0.406	C98.855,63.744,95.415,67,89.952,67z M90.116,42C83.971,42,80,46.81,80,54.253C80,61.389,83.906,66,89.952,66	c4.808,0,7.784-2.69,8.854-8H95.13c-0.72,3.185-2.591,5-5.178,5C85.563,63,84,58.481,84,54.253C84,45.901,88.306,45,90.157,45	c2.479,0,4.265,1.451,4.947,4h3.745C98.075,44.604,94.848,42,90.116,42z"/><path fill="#1f212b" d="M67.916,67c-3.081,0-5.399-0.813-6.916-2.42V66c0,0.276-0.224,0.5-0.5,0.5h-5	c-0.276,0-0.5-0.224-0.5-0.5V33.5c0-0.276,0.224-0.5,0.5-0.5h5c0.276,0,0.5,0.224,0.5,0.5v10.211C62.522,42.067,64.847,41,67.102,41	C73.722,41,78,46.148,78,54.117C78,60.529,74.882,67,67.916,67z M60.5,62.57c0.176,0,0.343,0.093,0.434,0.251	C62.147,64.931,64.497,66,67.916,66C74.621,66,77,59.599,77,54.117C77,48.26,74.399,42,67.102,42c-2.448,0-4.985,1.425-6.169,3.466	c-0.113,0.196-0.345,0.292-0.563,0.231C60.151,45.639,60,45.441,60,45.215V34h-4v31.5h4v-2.43c0-0.227,0.152-0.425,0.371-0.483	C60.414,62.576,60.457,62.57,60.5,62.57z M66.542,63C62.629,63,60,59.492,60,54.272c0-5.493,2.445-8.772,6.542-8.772	c4.435,0,6.456,4.547,6.458,8.772C73,58.491,71.304,63,66.542,63z M66.542,46.5C63.02,46.5,61,49.333,61,54.272	C61,58.967,63.176,62,66.542,62C70.566,62,72,58.008,72,54.272C71.998,50.529,70.29,46.5,66.542,46.5z"/><path fill="#1f212b" d="M34.295,62H8.486c-0.176,0-0.338-0.092-0.429-0.242c-0.09-0.15-0.095-0.338-0.013-0.492l12.219-23	C20.351,38.103,20.521,38,20.705,38H38.5c0.276,0,0.5,0.224,0.5,0.5S38.776,39,38.5,39H21.006L9.318,61h24.676l2.516-4.734	c0.13-0.243,0.435-0.338,0.676-0.207c0.244,0.13,0.337,0.432,0.207,0.676l-2.656,5C34.649,61.897,34.479,62,34.295,62z"/><path fill="#1f212b" d="M42.264,47c-0.079,0-0.16-0.019-0.234-0.059c-0.244-0.13-0.337-0.432-0.207-0.676l0.531-1	c0.13-0.243,0.435-0.338,0.676-0.207c0.244,0.13,0.337,0.432,0.207,0.676l-0.531,1C42.615,46.903,42.442,47,42.264,47z"/><path fill="#1f212b" d="M39.076,53c-0.079,0-0.16-0.019-0.234-0.059c-0.244-0.13-0.337-0.432-0.207-0.676l2.125-4	c0.129-0.243,0.434-0.338,0.676-0.207c0.244,0.13,0.337,0.432,0.207,0.676l-2.125,4C39.428,52.903,39.255,53,39.076,53z"/></svg>