<svg xmlns="http://www.w3.org/2000/svg"  viewBox="0 0 100 100" width="200px" height="200px"><path fill="#ee3e54" d="M28.814,81h15.119L19,56.068v15.119C19,76.606,23.394,81,28.814,81z"/><polygon fill="#f4989e" points="42.956,81 62.497,81 19,37.503 19,57.044"/><path fill="#8889b9" d="M19,28.814v9.129L62.058,81h9.129c2.863,0,5.43-1.233,7.224-3.188L22.188,21.589 C20.233,23.383,19,25.951,19,28.814z"/><path fill="#a1a1ca" d="M21.957,21.799l56.243,56.243C79.93,76.273,81,73.857,81,71.186v-9.885L38.698,19h-9.885 C26.143,19,23.727,20.069,21.957,21.799z"/><polygon fill="#78a0cf" points="81,61.741 81,42.2 57.8,19 38.259,19"/><path fill="#77cbd2" d="M71.186,19h-14.64L81,43.454v-14.64C81,23.394,76.606,19,71.186,19z"/><path fill="#1f212b" d="M69.654,17.921h-39c-7.168,0-13,5.832-13,13v39c0,7.168,5.832,13,13,13h39c7.168,0,13-5.832,13-13	v-39C82.654,23.753,76.822,17.921,69.654,17.921z M80.654,69.921c0,6.065-4.935,11-11,11h-39c-6.065,0-11-4.935-11-11v-39	c0-6.065,4.935-11,11-11h39c6.065,0,11,4.935,11,11V69.921z"/><path fill="#1f212b" d="M77.154,47.921c-0.276,0-0.5,0.224-0.5,0.5v18.663c0,5.424-4.413,9.837-9.837,9.837H33.49	c-5.424,0-9.837-4.413-9.837-9.837V33.758c0-5.424,4.413-9.837,9.837-9.837h33.663c0.276,0,0.5-0.224,0.5-0.5s-0.224-0.5-0.5-0.5	H33.49c-5.976,0-10.837,4.861-10.837,10.837v33.326c0,5.976,4.861,10.837,10.837,10.837h33.326c5.976,0,10.837-4.861,10.837-10.837	V48.421C77.654,48.145,77.43,47.921,77.154,47.921z M77.154,40.921c-0.276,0-0.5,0.224-0.5,0.5v4c0,0.276,0.224,0.5,0.5,0.5	s0.5-0.224,0.5-0.5v-4C77.654,41.145,77.43,40.921,77.154,40.921z M76.654,37.421v2c0,0.276,0.224,0.5,0.5,0.5s0.5-0.224,0.5-0.5v-2	c0-0.276-0.224-0.5-0.5-0.5S76.654,37.145,76.654,37.421z"/><path fill="#fff" stroke="#1f212b" stroke-miterlimit="10" d="M51,38.5c-4.142,0-7.5,3.358-7.5,7.5s3.358,7.5,7.5,7.5	s7.5-3.358,7.5-7.5S55.142,38.5,51,38.5z M51,49.5c-1.933,0-3.5-1.567-3.5-3.5s1.567-3.5,3.5-3.5s3.5,1.567,3.5,3.5	S52.933,49.5,51,49.5z"/><path fill="#fff" stroke="#1f212b" stroke-linecap="round" stroke-linejoin="round" stroke-miterlimit="10" d="M51,31.5	c-7.847,0-14.223,6.238-14.476,14.024L36.5,63.5c0,3.314,2.686,6,6,6s6-2.686,6-6v-3.23c0.814,0.142,1.646,0.23,2.5,0.23	c8.008,0,14.5-6.492,14.5-14.5S59.008,31.5,51,31.5z M44.5,63.5c0,1.105-0.895,2-2,2s-2-0.895-2-2v-7.519	c1.147,1.206,2.498,2.211,4,2.967V63.5z M51,56.5c-5.799,0-10.5-4.701-10.5-10.5c0-5.799,4.701-10.5,10.5-10.5S61.5,40.201,61.5,46	C61.5,51.799,56.799,56.5,51,56.5z"/></svg>