<svg xmlns="http://www.w3.org/2000/svg"  viewBox="0 0 100 100" width="200px" height="200px"><circle cx="13" cy="29" r="2" fill="#ee3e54"/><circle cx="77" cy="13" r="1" fill="#f1bc19"/><circle cx="50" cy="50" r="37" fill="#fce0a2"/><circle cx="83" cy="15" r="4" fill="#f1bc19"/><circle cx="87" cy="24" r="2" fill="#ee3e54"/><circle cx="81" cy="76" r="2" fill="#fbcd59"/><circle cx="15" cy="63" r="4" fill="#fbcd59"/><circle cx="25" cy="87" r="2" fill="#ee3e54"/><circle cx="18.5" cy="53.5" r="2.5" fill="#fff"/><circle cx="21" cy="67" r="1" fill="#f1bc19"/><circle cx="80" cy="34" r="1" fill="#fff"/><path fill="#fff" d="M64.119,65.518L57.75,44l-18.641,7.5l10.235,19.975c0.997,2.473,5.113,3.144,9.193,1.499 S65.116,67.991,64.119,65.518z"/><path fill="#472b29" d="M54.134,74.585c-2.599,0-4.694-1.002-5.439-2.848L38.485,51.819c-0.09-0.175-0.102-0.38-0.033-0.564 c0.069-0.184,0.213-0.331,0.395-0.404l18.642-7.5c0.183-0.073,0.39-0.066,0.566,0.019c0.178,0.086,0.311,0.243,0.366,0.432 l6.36,21.487c1.126,2.87-1.493,6.525-5.982,8.335C57.187,74.273,55.582,74.585,54.134,74.585z M40.081,51.863l9.886,19.292 c0.863,2.133,4.655,2.641,8.309,1.169c3.652-1.473,6.031-4.47,5.194-6.545c-0.008-0.021-0.016-0.042-0.021-0.063l-6.151-20.78 L40.081,51.863z"/><path fill="#fff" d="M59.594,42.935l-4.206-10.277l-22.411,9.036l4.206,10.277c0.629,1.559,6.155,0.799,12.343-1.696 C55.715,47.78,60.223,44.493,59.594,42.935z"/><path fill="#472b29" d="M39.542,53.474c-1.546,0-2.654-0.366-3.008-1.241L32.33,41.959c-0.071-0.172-0.07-0.366,0.003-0.538 c0.072-0.171,0.21-0.307,0.383-0.377l22.41-9.037c0.357-0.143,0.764,0.028,0.909,0.384l4.206,10.277 c0.001,0.001,0.001,0.002,0.002,0.003c0.448,1.111-0.465,2.506-2.714,4.146c-1.946,1.419-4.695,2.877-7.74,4.105 C46.174,52.382,42.209,53.474,39.542,53.474z M33.892,42.08l3.939,9.626c0.264,0.653,4.47,0.727,11.435-2.08 c2.941-1.186,5.583-2.584,7.439-3.938c2.079-1.516,2.296-2.35,2.239-2.491l-3.94-9.63L33.892,42.08z"/><path fill="#ff9827" d="M48.5,61.2c-0.263,0-0.507-0.148-0.626-0.387l-2-4c-0.085-0.169-0.098-0.365-0.035-0.544	c0.063-0.178,0.194-0.324,0.366-0.404c0.086-0.04,2.113-0.962,3.813-0.331c0.79,0.294,1.377,0.859,1.746,1.679	c0.457,1.016,0.251,1.771-0.002,2.226c-0.778,1.398-2.927,1.723-3.169,1.755C48.562,61.198,48.53,61.2,48.5,61.2z M47.479,56.894	l1.407,2.813c0.573-0.148,1.378-0.453,1.652-0.95c0.053-0.095,0.212-0.382-0.053-0.97c-0.212-0.471-0.523-0.778-0.953-0.939	C48.894,56.608,48.08,56.728,47.479,56.894z"/><path fill="#ea4598" d="M54.25,59.45c-0.275,0-0.536-0.164-0.647-0.434l-1.75-4.25c-0.13-0.316-0.013-0.68,0.277-0.861	c0.229-0.142,2.271-1.366,3.849-0.663c0.536,0.24,1.226,0.805,1.461,2.136c0.469,2.659-2.795,3.969-2.935,4.023	C54.421,59.435,54.335,59.45,54.25,59.45z M53.39,54.823l1.221,2.963c0.672-0.396,1.63-1.15,1.45-2.165	c-0.154-0.877-0.528-1.044-0.651-1.1C54.854,54.272,53.984,54.553,53.39,54.823z"/><path fill="#472b29" d="M43.626,32.2c-0.055,0-0.11-0.006-0.165-0.02c-0.376-0.091-0.607-0.469-0.517-0.845	c0.424-1.756-0.589-3.075-1.66-4.471c-0.853-1.11-1.734-2.259-1.734-3.615c0-2.903,2.547-5.45,5.45-5.45s4.45,2.439,4.45,4.2	c0,2.323-1.483,4.075-3.45,4.075c-1.557,0-2.45-0.848-2.45-2.325c0-1.131,1.19-2.2,2.45-2.2c0.387,0,0.7,0.313,0.7,0.7	s-0.313,0.7-0.7,0.7c-0.521,0-1.05,0.465-1.05,0.8c0,0.524,0.077,0.925,1.05,0.925c1.169,0,2.05-1.15,2.05-2.675	c0-1.145-1.086-2.8-3.05-2.8c-1.912,0-4.05,1.732-4.05,4.05c0,0.881,0.701,1.794,1.444,2.762c1.11,1.446,2.491,3.246,1.911,5.652	C44.229,31.985,43.941,32.2,43.626,32.2z"/><path fill="#472b29" d="M35,34.7c-2.78,0-4.075-2.208-4.075-3.7c0-2.055,1.575-4.95,5.075-4.95	c2.076,0,3.213,1.011,3.8,1.859c1.121,1.617,1.1,3.77,0.605,5.087c-0.136,0.363-0.538,0.548-0.901,0.41	c-0.361-0.136-0.545-0.539-0.409-0.901c0.372-0.993,0.343-2.662-0.445-3.798C38.072,27.873,37.181,27.45,36,27.45	c-3,0-3.675,2.629-3.675,3.55c0,0.721,0.674,2.3,2.675,2.3c1.596,0,1.8-0.828,1.8-1.55c0-0.46-0.211-0.925-0.49-1.081	c-0.281-0.157-0.67,0.009-0.942,0.177c-0.329,0.203-0.762,0.1-0.963-0.229c-0.203-0.329-0.101-0.76,0.229-0.963	c1.129-0.695,1.963-0.429,2.36-0.207c0.891,0.498,1.207,1.552,1.207,2.303C38.2,33.625,37.033,34.7,35,34.7z"/><path fill="#ff991f" d="M33.69,36.41c-0.865-0.21-1.639-0.565-2.315-1.019v3.234C32.01,37.854,32.796,37.111,33.69,36.41z"/><path fill="#472b29" d="M31.375,39c-0.042,0-0.085-0.007-0.127-0.022C31.1,38.925,31,38.783,31,38.625v-3.234 c0-0.139,0.076-0.266,0.198-0.331c0.124-0.065,0.27-0.057,0.386,0.02c0.67,0.45,1.409,0.775,2.195,0.966 c0.14,0.034,0.247,0.145,0.277,0.285c0.03,0.14-0.021,0.286-0.135,0.374c-0.899,0.705-1.659,1.431-2.257,2.159 C31.592,38.952,31.485,39,31.375,39z M31.75,36.057v1.586c0.35-0.362,0.734-0.721,1.152-1.075 C32.504,36.43,32.119,36.259,31.75,36.057z"/><g><path fill="#ea4598" d="M64.601,31.375h-6.736l0.23,0.508l4.079,9.966c0.397,0.982,0.503,2.453-0.902,4.244l5.514,18.626 c1.131,3.023-0.38,6.447-3.63,8.906h1.445c2.222,0,4.024-1.802,4.024-4.024V35.399C68.625,33.176,66.824,31.375,64.601,31.375z"/><path fill="#472b29" d="M64.602,74h-1.445c-0.161,0-0.305-0.103-0.355-0.256c-0.052-0.152,0.001-0.321,0.129-0.418 c3.21-2.429,4.553-5.677,3.505-8.476l-5.522-18.651c-0.035-0.117-0.011-0.242,0.064-0.338c1.058-1.347,1.343-2.65,0.85-3.872 l-4.303-10.46c-0.053-0.116-0.042-0.25,0.026-0.357C57.619,31.064,57.738,31,57.865,31h6.736C67.027,31,69,32.973,69,35.399v34.202 C69,72.027,67.027,74,64.602,74z M64.206,73.25h0.396c2.012,0,3.648-1.637,3.648-3.649V35.399c0-2.012-1.637-3.649-3.648-3.649 h-6.156l4.075,9.957c0.403,0.999,0.575,2.571-0.835,4.462l5.46,18.443C68.209,67.453,67.087,70.698,64.206,73.25z"/></g><g><path fill="#ff991f" d="M46.744,72.702L37.92,55.484c-2.103-0.35-2.996-1.443-3.371-2.373l-3.173-7.755v24.269 c0,2.209,1.791,3.999,3.999,3.999H47.25C47.058,73.333,46.883,73.03,46.744,72.702z"/><path fill="#472b29" d="M47.25,74H35.374C32.962,74,31,72.038,31,69.625V45.356c0-0.179,0.127-0.333,0.303-0.368 c0.183-0.033,0.353,0.061,0.419,0.226l3.173,7.754c0.47,1.162,1.508,1.883,3.087,2.145c0.117,0.02,0.218,0.093,0.272,0.199 l8.824,17.218c0.004,0.008,0.008,0.017,0.012,0.025c0.114,0.27,0.265,0.544,0.474,0.864c0.075,0.115,0.082,0.263,0.017,0.384 S47.388,74,47.25,74z M31.75,47.263v22.362c0,1.999,1.626,3.625,3.624,3.625H46.59c-0.069-0.132-0.131-0.261-0.186-0.39 l-8.733-17.04c-2.174-0.418-3.088-1.621-3.471-2.569L31.75,47.263z"/></g><g><path fill="#fff" d="M54.5,34.64c-1.59,1.63-5,3.67-9.18,5.36c-4.18,1.68-8.06,2.57-10.32,2.49 c-1.1-0.03-1.82-0.29-2.02-0.8c-0.63-1.55,3.88-4.84,10.06-7.34c6.19-2.49,11.72-3.25,12.35-1.69 C55.59,33.17,55.26,33.86,54.5,34.64z"/><path fill="#472b29" d="M35.28,43.195c-0.104,0-0.206-0.001-0.305-0.005c-1.448-0.04-2.34-0.459-2.647-1.246 c-0.163-0.4-0.143-0.857,0.064-1.347c0.822-1.945,4.995-4.716,10.385-6.896c5.714-2.298,12.299-3.686,13.262-1.303 c0.31,0.79-0.04,1.706-1.037,2.73c-0.001,0-0.001,0-0.001,0c-1.727,1.77-5.247,3.833-9.418,5.52 C41.637,42.235,37.736,43.195,35.28,43.195z M53.18,32.547c-1.846,0-5.254,0.592-9.878,2.452c-5.502,2.226-9.063,4.826-9.619,6.143 c-0.063,0.15-0.068,0.247-0.054,0.284c0.036,0.092,0.36,0.336,1.391,0.364c2.253,0.068,6.098-0.855,10.04-2.44 c3.939-1.593,7.365-3.585,8.939-5.199c0.716-0.735,0.776-1.141,0.739-1.235C54.65,32.7,54.116,32.547,53.18,32.547z M54.5,34.64 h0.01H54.5z"/></g><path fill="#472b29" d="M54.5,34.64c-1.59,1.63-5,3.67-9.18,5.36c-4.18,1.68-8.06,2.57-10.32,2.49	c1.56-1.71,4.95-3.8,9.11-5.48C48.29,35.32,52.2,34.48,54.5,34.64z"/><path fill="#472b29" d="M55.447,43.909c-0.08,0-0.159-0.039-0.207-0.11c-0.077-0.114-0.048-0.27,0.067-0.347	c0.429-0.29,0.86-0.592,1.297-0.905c0.11-0.081,0.268-0.056,0.349,0.058c0.08,0.112,0.055,0.268-0.058,0.349	c-0.44,0.316-0.876,0.62-1.308,0.913C55.545,43.895,55.496,43.909,55.447,43.909z"/><path fill="#472b29" d="M53.39,45.228c-0.084,0-0.167-0.043-0.214-0.121c-0.071-0.119-0.033-0.272,0.085-0.343	c0.398-0.241,0.798-0.492,1.2-0.752c0.116-0.073,0.271-0.042,0.346,0.074c0.075,0.116,0.042,0.271-0.074,0.346	c-0.406,0.264-0.81,0.517-1.214,0.76C53.479,45.216,53.434,45.228,53.39,45.228z"/><path fill="#472b29" d="M39.25,50c-0.126,0-0.234-0.095-0.248-0.222c-0.016-0.137,0.083-0.261,0.221-0.276	c4.778-0.531,8.688-1.749,12.677-3.95c0.122-0.067,0.272-0.023,0.34,0.098c0.066,0.121,0.022,0.273-0.098,0.339	c-4.05,2.234-8.018,3.471-12.864,4.01C39.269,50,39.259,50,39.25,50z"/><path fill="#472b29" d="M65.75,47c-0.138,0-0.25-0.112-0.25-0.25v-10.5c0-0.965-0.785-1.75-1.75-1.75h-2.5	c-0.138,0-0.25-0.112-0.25-0.25S61.112,34,61.25,34h2.5c1.24,0,2.25,1.009,2.25,2.25v10.5C66,46.888,65.888,47,65.75,47z"/><path fill="#472b29" d="M65.75,51c-0.138,0-0.25-0.112-0.25-0.25v-2.5c0-0.138,0.112-0.25,0.25-0.25S66,48.112,66,48.25v2.5	C66,50.888,65.888,51,65.75,51z"/><path fill="#472b29" d="M65.75,54c-0.138,0-0.25-0.112-0.25-0.25v-1.5c0-0.138,0.112-0.25,0.25-0.25S66,52.112,66,52.25v1.5	C66,53.888,65.888,54,65.75,54z"/><path fill="#472b29" d="M42.75,71h-6.5C35.01,71,34,69.991,34,68.75v-5.5c0-0.138,0.112-0.25,0.25-0.25s0.25,0.112,0.25,0.25	v5.5c0,0.965,0.785,1.75,1.75,1.75h6.5c0.138,0,0.25,0.112,0.25,0.25S42.888,71,42.75,71z"/><path fill="#472b29" d="M34.25,62C34.112,62,34,61.888,34,61.75v-2.5c0-0.138,0.112-0.25,0.25-0.25s0.25,0.112,0.25,0.25v2.5	C34.5,61.888,34.388,62,34.25,62z"/><path fill="#472b29" d="M34.25,58C34.112,58,34,57.888,34,57.75v-1.5c0-0.138,0.112-0.25,0.25-0.25s0.25,0.112,0.25,0.25v1.5	C34.5,57.888,34.388,58,34.25,58z"/></svg>