<svg xmlns="http://www.w3.org/2000/svg"  viewBox="0 0 100 100" width="200px" height="200px"><path fill="#fbb97f" d="M24,54c0-16.569,13.431-30,30-30c15.919,0,29.004,12.332,30,28c0.041-0.685,0-1.305,0-2	c0-18.778-15.222-34-34-34c-18.778,0-34,15.222-34,34s15.222,34,34,34c0.695,0,1.315,0.041,2,0C36.332,83.004,24,69.919,24,54z"/><path fill="#fbb97f" d="M71,57c-6.075,0-11-4.925-11-11c0-4.648,2.887-8.614,6.962-10.225C63.703,34.005,59.969,33,56,33	c-12.703,0-23,10.297-23,23s10.297,23,23,23c12.703,0,23-10.297,23-23c0-0.789-0.04-1.568-0.118-2.336	C76.884,55.719,74.093,57,71,57z"/><path fill="#1f212b" d="M51.332,85.018c-0.223,0-0.444-0.004-0.668-0.009C50.447,85.004,50.228,85,50,85	c-19.299,0-35-15.701-35-35s15.701-35,35-35s35,15.701,35,35c0,0.228,0.004,0.447,0.009,0.664c0.009,0.464,0.018,0.915-0.011,1.396	C84.967,52.588,84.55,52.958,84,53c-0.527,0-0.964-0.41-0.998-0.937C82.037,36.888,69.297,25,54,25c-15.991,0-29,13.009-29,29	c0,15.297,11.888,28.037,27.063,29.002c0.527,0.034,0.938,0.472,0.937,1s-0.413,0.965-0.94,0.996	C51.811,85.013,51.57,85.018,51.332,85.018z M50,17c-18.196,0-33,14.804-33,33c0,14.178,8.988,26.297,21.565,30.958	C29.244,75.575,23,65.459,23,54c0-17.093,13.907-31,31-31c11.459,0,21.575,6.244,26.958,15.565C76.297,25.988,64.178,17,50,17z"/><path fill="#1f212b" d="M56,80c-13.233,0-24-10.767-24-24s10.767-24,24-24c3.995,0,7.95,1.001,11.439,2.896	c0.341,0.186,0.544,0.552,0.521,0.939s-0.269,0.727-0.63,0.87C63.484,38.225,61,41.874,61,46c0,5.514,4.486,10,10,10	c2.718,0,5.263-1.077,7.166-3.034c0.271-0.278,0.679-0.375,1.046-0.247c0.367,0.128,0.627,0.457,0.666,0.844	C79.958,54.369,80,55.188,80,56C80,69.233,69.233,80,56,80z M56,34c-12.131,0-22,9.869-22,22s9.869,22,22,22s22-9.869,22-22	c0-0.084,0-0.169-0.001-0.254C75.973,57.21,73.55,58,71,58c-6.617,0-12-5.383-12-12c0-4.237,2.182-8.055,5.702-10.211	C61.969,34.615,58.997,34,56,34z"/><path fill="#1f212b" d="M56,74c-9.925,0-18-8.075-18-18s8.075-18,18-18l0.293,0.002c0.276,0.004,0.497,0.231,0.492,0.508	c-0.004,0.273-0.228,0.492-0.5,0.492c-0.002,0-0.005,0-0.008,0L56,39c-9.374,0-17,7.626-17,17s7.626,17,17,17	c7.004,0,13.208-4.213,15.803-10.732c0.102-0.256,0.391-0.382,0.649-0.279c0.256,0.102,0.382,0.393,0.279,0.649	C69.984,69.54,63.417,74,56,74z"/><path fill="#1f212b" d="M61.595,60c-0.099,0-0.198-0.029-0.285-0.089C56.733,56.729,54,51.529,54,46	c0-1.759,0.265-3.492,0.788-5.15c0.083-0.263,0.366-0.409,0.627-0.327c0.263,0.083,0.41,0.364,0.327,0.627	C55.25,42.711,55,44.343,55,46c0,5.202,2.572,10.095,6.881,13.089c0.227,0.158,0.283,0.469,0.125,0.696	C61.909,59.925,61.753,60,61.595,60z"/><path fill="#1f212b" d="M66.5,62.336c-0.045,0-0.091-0.006-0.137-0.019c-0.646-0.184-1.321-0.427-2.061-0.746	c-0.254-0.109-0.371-0.403-0.262-0.657c0.109-0.254,0.406-0.369,0.657-0.262c0.7,0.301,1.334,0.531,1.939,0.703	c0.266,0.075,0.42,0.352,0.344,0.618C66.918,62.193,66.718,62.336,66.5,62.336z"/><path fill="#1f212b" d="M69.5,62.895c-0.015,0-0.03,0-0.045-0.002c-0.282-0.025-0.558-0.068-0.834-0.112l-0.197-0.031	c-0.273-0.042-0.46-0.297-0.418-0.57c0.042-0.273,0.293-0.459,0.57-0.418l0.201,0.031c0.254,0.04,0.509,0.081,0.768,0.104	c0.275,0.025,0.478,0.268,0.454,0.542C69.975,62.699,69.756,62.895,69.5,62.895z"/></svg>